<svg width="396" height="124.46254744147512" viewBox="0 0 350 110.00477677908155" class="css-1j8o68f">
  <defs id="SvgjsDefs1216"/>
  <g id="SvgjsG1217" featurekey="nameFeature-0" transform="matrix(2.3461823955923977,0,0,2.3461823955923977,-0.0034635007018826553,-11.449363646508491)" fill="#ff014f">
    <path d="M18.36 4.880000000000001 c1.9 0 3.44 1.54 3.44 3.44 l0 11.1 c0 0.32 -0.26 0.58 -0.6 0.58 c-0.32 0 -0.6 -0.26 -0.6 -0.58 l0 -11.1 c0 -1.24 -1 -2.24 -2.24 -2.24 c-1.22 0 -2.24 1 -2.24 2.24 l0 8.24 c0 0.96 -0.78 1.74 -1.74 1.74 s-1.74 -0.78 -1.74 -1.74 l0 -8.26 c0 -0.78 -0.42 -1.52 -1.12 -1.92 c-1.04 -0.62 -2.38 -0.24 -3.08 0.84 l-7.22 11.24 c-0.06 0.08 -0.08 0.24 0.06 0.34 c0.18 0.12 0.28 0.02 0.36 -0.1 l7.22 -11.22 c0.48 -0.72 1.48 -1.22 2.42 -0.68 c0.52 0.32 0.86 0.88 0.86 1.5 l0 8.26 c0 1.24 1.02 2.24 2.24 2.24 c1.24 0 2.24 -1 2.24 -2.24 l0 -8.24 c0 -0.34 0.28 -0.6 0.6 -0.6 c0.34 0 0.6 0.26 0.6 0.6 l0 8.24 c0 1.9 -1.54 3.44 -3.44 3.44 c-1.88 0 -3.42 -1.54 -3.42 -3.44 l0 -8.26 c-0.02 -0.22 -0.12 -0.38 -0.3 -0.46 c-0.38 -0.18 -0.66 0.08 -0.78 0.3 l-7.2 11.16 c-0.4 0.74 -1.32 0.88 -1.96 0.5 c-0.7 -0.4 -0.92 -1.28 -0.52 -1.96 l7.24 -11.26 c1.04 -1.62 3.1 -2.16 4.68 -1.24 c1.06 0.62 1.72 1.76 1.72 3 l0 8.22 c0 0.3 0.24 0.56 0.54 0.56 s0.56 -0.26 0.56 -0.56 l0 -8.24 c-0.02 -1.9 1.54 -3.44 3.42 -3.44 z M35.14 4.880000000000001 c0.8 0 1.44 0.64 1.46 1.44 l0 7.32 c0 1.76 -0.68 3.42 -1.94 4.68 c-1.28 1.28 -2.98 1.92 -4.66 1.92 c-1.7 0 -3.38 -0.64 -4.66 -1.92 c-1.26 -1.26 -1.94 -2.92 -1.94 -4.68 c0 -0.32 0.26 -0.6 0.6 -0.6 c0.32 0 0.6 0.28 0.6 0.6 c0 1.44 0.56 2.8 1.58 3.82 c2.1 2.12 5.54 2.12 7.64 0 c1.02 -1.02 1.58 -2.38 1.58 -3.82 l0 -7.3 c0 -0.14 -0.12 -0.26 -0.26 -0.26 c-0.16 0 -0.28 0.12 -0.28 0.26 l0 7.3 c0 1.3 -0.5 2.52 -1.42 3.44 s-2.14 1.42 -3.44 1.42 s-2.52 -0.5 -3.44 -1.42 s-1.42 -2.14 -1.42 -3.44 l0 -8.16 c0 -0.34 0.26 -0.6 0.58 -0.6 c0.34 0 0.6 0.26 0.6 0.6 l0 8.16 c0 0.98 0.38 1.9 1.08 2.6 s1.62 1.08 2.6 1.08 s1.9 -0.38 2.6 -1.08 c0.68 -0.7 1.08 -1.62 1.08 -2.6 l0 -7.32 c0 -0.8 0.66 -1.44 1.46 -1.44 z M38.800000000000004 4.880000000000001 c0.34 0 0.62 0.28 0.62 0.62 l0 13.9 c0 0.34 -0.28 0.6 -0.62 0.6 c-0.32 0 -0.6 -0.26 -0.6 -0.6 l0 -13.9 c0 -0.34 0.28 -0.62 0.6 -0.62 z M51.120000000000005 4.880000000000001 c0.34 0 0.6 0.28 0.6 0.62 l0 5.78 c0 0.96 -0.76 1.74 -1.72 1.78 l0 6.34 c0 0.34 -0.28 0.6 -0.6 0.6 c-0.34 0 -0.62 -0.26 -0.62 -0.6 l0 -6.34 l-7.08 0 c-0.3 0 -0.56 0.24 -0.56 0.56 l0 5.78 c0 0.34 -0.26 0.6 -0.6 0.6 s-0.62 -0.26 -0.62 -0.6 l0 -5.78 c0 -0.98 0.8 -1.78 1.78 -1.78 l7.08 0 l0 -6.34 c0 -0.34 0.28 -0.62 0.62 -0.62 c0.32 0 0.6 0.28 0.6 0.62 l0 6.34 c0.28 -0.04 0.5 -0.28 0.5 -0.56 l0 -5.78 c0 -0.34 0.28 -0.62 0.62 -0.62 z M61.260000000000005 4.880000000000001 c1.46 0 2.76 0.9 3.28 2.26 l5.02 12.02 c0.14 0.32 -0.02 0.66 -0.32 0.8 c-0.32 0.12 -0.68 -0.02 -0.8 -0.34 l-5.06 -12.1 c-0.36 -0.86 -1.2 -1.42 -2.12 -1.42 c-0.94 0 -1.76 0.56 -2.12 1.42 l-4.56 10.9 c-0.06 0.14 -0.02 0.3 0.12 0.36 s0.28 0 0.34 -0.16 l4.56 -10.88 c0.28 -0.66 0.94 -1.08 1.66 -1.08 s1.38 0.42 1.66 1.1 l2.36 5.62 c0.22 0.52 -0.1 0.84 -0.58 0.84 l-4.8 0 c-0.34 0 -0.62 -0.28 -0.62 -0.62 s0.28 -0.6 0.62 -0.6 l3.9 0 l-2 -4.76 c-0.08 -0.22 -0.28 -0.38 -0.54 -0.38 s-0.46 0.16 -0.54 0.38 l-4.56 10.84 c-0.3 0.76 -1.16 1.12 -1.92 0.82 c-0.76 -0.32 -1.12 -1.18 -0.82 -1.92 l4.56 -10.84 c0.52 -1.36 1.82 -2.26 3.28 -2.26 z M89.58000000000001 4.880000000000001 c1.9 0 3.44 1.54 3.44 3.44 l0 11.1 c0 0.32 -0.26 0.58 -0.6 0.58 c-0.32 0 -0.6 -0.26 -0.6 -0.58 l0 -11.1 c0 -1.24 -1 -2.24 -2.24 -2.24 c-1.22 0 -2.24 1 -2.24 2.24 l0 8.24 c0 0.96 -0.78 1.74 -1.74 1.74 s-1.74 -0.78 -1.74 -1.74 l0 -8.26 c0 -0.78 -0.42 -1.52 -1.12 -1.92 c-1.04 -0.62 -2.38 -0.24 -3.08 0.84 l-7.22 11.24 c-0.06 0.08 -0.08 0.24 0.06 0.34 c0.18 0.12 0.28 0.02 0.36 -0.1 l7.22 -11.22 c0.48 -0.72 1.48 -1.22 2.42 -0.68 c0.52 0.32 0.86 0.88 0.86 1.5 l0 8.26 c0 1.24 1.02 2.24 2.24 2.24 c1.24 0 2.24 -1 2.24 -2.24 l0 -8.24 c0 -0.34 0.28 -0.6 0.6 -0.6 c0.34 0 0.6 0.26 0.6 0.6 l0 8.24 c0 1.9 -1.54 3.44 -3.44 3.44 c-1.88 0 -3.42 -1.54 -3.42 -3.44 l0 -8.26 c-0.02 -0.22 -0.12 -0.38 -0.3 -0.46 c-0.38 -0.18 -0.66 0.08 -0.78 0.3 l-7.2 11.16 c-0.4 0.74 -1.32 0.88 -1.96 0.5 c-0.7 -0.4 -0.92 -1.28 -0.52 -1.96 l7.24 -11.26 c1.04 -1.62 3.1 -2.16 4.68 -1.24 c1.06 0.62 1.72 1.76 1.72 3 l0 8.22 c0 0.3 0.24 0.56 0.54 0.56 s0.56 -0.26 0.56 -0.56 l0 -8.24 c-0.02 -1.9 1.54 -3.44 3.42 -3.44 z M112.98000000000002 4.880000000000001 c1.9 0 3.44 1.54 3.44 3.44 l0 11.1 c0 0.32 -0.26 0.58 -0.6 0.58 c-0.32 0 -0.6 -0.26 -0.6 -0.58 l0 -11.1 c0 -1.24 -1 -2.24 -2.24 -2.24 c-1.22 0 -2.24 1 -2.24 2.24 l0 8.24 c0 0.96 -0.78 1.74 -1.74 1.74 s-1.74 -0.78 -1.74 -1.74 l0 -8.26 c0 -0.78 -0.42 -1.52 -1.12 -1.92 c-1.04 -0.62 -2.38 -0.24 -3.08 0.84 l-7.22 11.24 c-0.06 0.08 -0.08 0.24 0.06 0.34 c0.18 0.12 0.28 0.02 0.36 -0.1 l7.22 -11.22 c0.48 -0.72 1.48 -1.22 2.42 -0.68 c0.52 0.32 0.86 0.88 0.86 1.5 l0 8.26 c0 1.24 1.02 2.24 2.24 2.24 c1.24 0 2.24 -1 2.24 -2.24 l0 -8.24 c0 -0.34 0.28 -0.6 0.6 -0.6 c0.34 0 0.6 0.26 0.6 0.6 l0 8.24 c0 1.9 -1.54 3.44 -3.44 3.44 c-1.88 0 -3.42 -1.54 -3.42 -3.44 l0 -8.26 c-0.02 -0.22 -0.12 -0.38 -0.3 -0.46 c-0.38 -0.18 -0.66 0.08 -0.78 0.3 l-7.2 11.16 c-0.4 0.74 -1.32 0.88 -1.96 0.5 c-0.7 -0.4 -0.92 -1.28 -0.52 -1.96 l7.24 -11.26 c1.04 -1.62 3.1 -2.16 4.68 -1.24 c1.06 0.62 1.72 1.76 1.72 3 l0 8.22 c0 0.3 0.24 0.56 0.54 0.56 s0.56 -0.26 0.56 -0.56 l0 -8.24 c-0.02 -1.9 1.54 -3.44 3.42 -3.44 z M125.96000000000002 4.880000000000001 c1.46 0 2.76 0.9 3.28 2.26 l5.02 12.02 c0.14 0.32 -0.02 0.66 -0.32 0.8 c-0.32 0.12 -0.68 -0.02 -0.8 -0.34 l-5.06 -12.1 c-0.36 -0.86 -1.2 -1.42 -2.12 -1.42 c-0.94 0 -1.76 0.56 -2.12 1.42 l-4.56 10.9 c-0.06 0.14 -0.02 0.3 0.12 0.36 s0.28 0 0.34 -0.16 l4.56 -10.88 c0.28 -0.66 0.94 -1.08 1.66 -1.08 s1.38 0.42 1.66 1.1 l2.36 5.62 c0.22 0.52 -0.1 0.84 -0.58 0.84 l-4.8 0 c-0.34 0 -0.62 -0.28 -0.62 -0.62 s0.28 -0.6 0.62 -0.6 l3.9 0 l-2 -4.76 c-0.08 -0.22 -0.28 -0.38 -0.54 -0.38 s-0.46 0.16 -0.54 0.38 l-4.56 10.84 c-0.3 0.76 -1.16 1.12 -1.92 0.82 c-0.76 -0.32 -1.12 -1.18 -0.82 -1.92 l4.56 -10.84 c0.52 -1.36 1.82 -2.26 3.28 -2.26 z M141.62 4.9 c4.18 0 7.56 3.38 7.56 7.54 c0 4.18 -3.38 7.56 -7.56 7.56 l-4.36 0 c-1.18 0 -2.14 -0.96 -2.14 -2.14 l0 -10.68 c0 -0.32 0.28 -0.6 0.6 -0.6 c0.34 0 0.62 0.28 0.62 0.6 l0 10.68 c0 0.52 0.4 0.92 0.92 0.92 l4.36 0 c3.5 0 6.34 -2.84 6.34 -6.34 c0 -3.48 -2.84 -6.34 -6.34 -6.34 c-0.32 0 -0.6 -0.26 -0.6 -0.6 s0.28 -0.6 0.6 -0.6 z M137.42000000000002 6.58 l4.2 0 c3.24 0 5.88 2.64 5.88 5.86 c0 3.24 -2.64 5.88 -5.88 5.88 c-0.32 0 -0.6 -0.28 -0.6 -0.62 s0.28 -0.6 0.6 -0.6 c2.56 0 4.66 -2.1 4.66 -4.66 s-2.1 -4.64 -4.66 -4.64 l-3.58 0 l0 9.9 c0 0.34 -0.28 0.62 -0.62 0.62 s-0.6 -0.28 -0.6 -0.62 l0 -10.52 c0 -0.32 0.26 -0.6 0.6 -0.6 z"/>
  </g>
  <g id="SvgjsG1218" featurekey="nameFeature-1" transform="matrix(4.229096072567376,0,0,4.229096072567376,0,25.362022781430486)" fill="#ff014f">
    <path d="M0.6 4.880000000000001 c0.34 0 0.62 0.28 0.62 0.62 l0 13.9 c0 0.34 -0.28 0.6 -0.62 0.6 c-0.32 0 -0.6 -0.26 -0.6 -0.6 l0 -13.9 c0 -0.34 0.28 -0.62 0.6 -0.62 z M12.92 4.880000000000001 c0.34 0 0.6 0.28 0.6 0.62 l0 5.78 c0 0.96 -0.76 1.74 -1.72 1.78 l0 6.34 c0 0.34 -0.28 0.6 -0.6 0.6 c-0.34 0 -0.62 -0.26 -0.62 -0.6 l0 -6.34 l-7.08 0 c-0.3 0 -0.56 0.24 -0.56 0.56 l0 5.78 c0 0.34 -0.26 0.6 -0.6 0.6 s-0.62 -0.26 -0.62 -0.6 l0 -5.78 c0 -0.98 0.8 -1.78 1.78 -1.78 l7.08 0 l0 -6.34 c0 -0.34 0.28 -0.62 0.62 -0.62 c0.32 0 0.6 0.28 0.6 0.62 l0 6.34 c0.28 -0.04 0.5 -0.28 0.5 -0.56 l0 -5.78 c0 -0.34 0.28 -0.62 0.62 -0.62 z M23.060000000000002 4.880000000000001 c1.46 0 2.76 0.9 3.28 2.26 l5.02 12.02 c0.14 0.32 -0.02 0.66 -0.32 0.8 c-0.32 0.12 -0.68 -0.02 -0.8 -0.34 l-5.06 -12.1 c-0.36 -0.86 -1.2 -1.42 -2.12 -1.42 c-0.94 0 -1.76 0.56 -2.12 1.42 l-4.56 10.9 c-0.06 0.14 -0.02 0.3 0.12 0.36 s0.28 0 0.34 -0.16 l4.56 -10.88 c0.28 -0.66 0.94 -1.08 1.66 -1.08 s1.38 0.42 1.66 1.1 l2.36 5.62 c0.22 0.52 -0.1 0.84 -0.58 0.84 l-4.8 0 c-0.34 0 -0.62 -0.28 -0.62 -0.62 s0.28 -0.6 0.62 -0.6 l3.9 0 l-2 -4.76 c-0.08 -0.22 -0.28 -0.38 -0.54 -0.38 s-0.46 0.16 -0.54 0.38 l-4.56 10.84 c-0.3 0.76 -1.16 1.12 -1.92 0.82 c-0.76 -0.32 -1.12 -1.18 -0.82 -1.92 l4.56 -10.84 c0.52 -1.36 1.82 -2.26 3.28 -2.26 z M51.38 4.880000000000001 c1.9 0 3.44 1.54 3.44 3.44 l0 11.1 c0 0.32 -0.26 0.58 -0.6 0.58 c-0.32 0 -0.6 -0.26 -0.6 -0.58 l0 -11.1 c0 -1.24 -1 -2.24 -2.24 -2.24 c-1.22 0 -2.24 1 -2.24 2.24 l0 8.24 c0 0.96 -0.78 1.74 -1.74 1.74 s-1.74 -0.78 -1.74 -1.74 l0 -8.26 c0 -0.78 -0.42 -1.52 -1.12 -1.92 c-1.04 -0.62 -2.38 -0.24 -3.08 0.84 l-7.22 11.24 c-0.06 0.08 -0.08 0.24 0.06 0.34 c0.18 0.12 0.28 0.02 0.36 -0.1 l7.22 -11.22 c0.48 -0.72 1.48 -1.22 2.42 -0.68 c0.52 0.32 0.86 0.88 0.86 1.5 l0 8.26 c0 1.24 1.02 2.24 2.24 2.24 c1.24 0 2.24 -1 2.24 -2.24 l0 -8.24 c0 -0.34 0.28 -0.6 0.6 -0.6 c0.34 0 0.6 0.26 0.6 0.6 l0 8.24 c0 1.9 -1.54 3.44 -3.44 3.44 c-1.88 0 -3.42 -1.54 -3.42 -3.44 l0 -8.26 c-0.02 -0.22 -0.12 -0.38 -0.3 -0.46 c-0.38 -0.18 -0.66 0.08 -0.78 0.3 l-7.2 11.16 c-0.4 0.74 -1.32 0.88 -1.96 0.5 c-0.7 -0.4 -0.92 -1.28 -0.52 -1.96 l7.24 -11.26 c1.04 -1.62 3.1 -2.16 4.68 -1.24 c1.06 0.62 1.72 1.76 1.72 3 l0 8.22 c0 0.3 0.24 0.56 0.54 0.56 s0.56 -0.26 0.56 -0.56 l0 -8.24 c-0.02 -1.9 1.54 -3.44 3.42 -3.44 z M57.9 4.880000000000001 c0.8 0 1.46 0.66 1.46 1.48 l0 13.04 c0 0.32 -0.26 0.6 -0.6 0.6 s-0.62 -0.28 -0.62 -0.6 l0 -13.04 c0 -0.14 -0.1 -0.26 -0.24 -0.26 s-0.26 0.12 -0.26 0.26 l0 6.08 c0 0.34 -0.28 0.6 -0.62 0.6 c-0.32 0 -0.6 -0.26 -0.6 -0.6 l0 -6.08 c0 -0.82 0.66 -1.48 1.48 -1.48 z M79.32 4.880000000000001 c1.9 0 3.44 1.54 3.44 3.44 l0 11.1 c0 0.32 -0.26 0.58 -0.6 0.58 c-0.32 0 -0.6 -0.26 -0.6 -0.58 l0 -11.1 c0 -1.24 -1 -2.24 -2.24 -2.24 c-1.22 0 -2.24 1 -2.24 2.24 l0 8.24 c0 0.96 -0.78 1.74 -1.74 1.74 s-1.74 -0.78 -1.74 -1.74 l0 -8.26 c0 -0.78 -0.42 -1.52 -1.12 -1.92 c-1.04 -0.62 -2.38 -0.24 -3.08 0.84 l-7.22 11.24 c-0.06 0.08 -0.08 0.24 0.06 0.34 c0.18 0.12 0.28 0.02 0.36 -0.1 l7.22 -11.22 c0.48 -0.72 1.48 -1.22 2.42 -0.68 c0.52 0.32 0.86 0.88 0.86 1.5 l0 8.26 c0 1.24 1.02 2.24 2.24 2.24 c1.24 0 2.24 -1 2.24 -2.24 l0 -8.24 c0 -0.34 0.28 -0.6 0.6 -0.6 c0.34 0 0.6 0.26 0.6 0.6 l0 8.24 c0 1.9 -1.54 3.44 -3.44 3.44 c-1.88 0 -3.42 -1.54 -3.42 -3.44 l0 -8.26 c-0.02 -0.22 -0.12 -0.38 -0.3 -0.46 c-0.38 -0.18 -0.66 0.08 -0.78 0.3 l-7.2 11.16 c-0.4 0.74 -1.32 0.88 -1.96 0.5 c-0.7 -0.4 -0.92 -1.28 -0.52 -1.96 l7.24 -11.26 c1.04 -1.62 3.1 -2.16 4.68 -1.24 c1.06 0.62 1.72 1.76 1.72 3 l0 8.22 c0 0.3 0.24 0.56 0.54 0.56 s0.56 -0.26 0.56 -0.56 l0 -8.24 c-0.02 -1.9 1.54 -3.44 3.42 -3.44 z"/>
  </g>
</svg>
